{"title":"Ala Ela (2014) Telugu Movie 1CD HDRip x264 MP3 RDLinks Exclusive","uid":11955264,"size":736290306,"categoryP":"video","categoryS":"movies","magnet":"?xt=urn:btih:42c05365fefe688f0c80a7c05ab6eb6a3f94405a&amp;dn=Ala+Ela+%282014%29+Telugu+Movie+1CD+HDRip+x264+MP3+RDLinks+Exclusive&amp;tr=udp%3A%2F%2Ftracker.openbittorrent.com%3A80&amp;tr=udp%3A%2F%2Fopen.demonii.com%3A1337&amp;tr=udp%3A%2F%2Ftracker.coppersurfer.tk%3A6969&amp;tr=udp%3A%2F%2Fexodus.desync.com%3A6969","seeders":2,"leechers":2,"uploader":"RDLinks","files":3,"time":1432380013,"description":"[center]\n[img]http://i.imgur.com/Aa3RU3c.jpg[/img]\n\n[img]http://i.imgur.com/48K8Qq0.jpg[/img]\n\n[quote]\nGeneral\n\nFormat : Matroska\nFormat version : Version 4 / Version 2\nFile size : 702 MiB\nDuration : 2h 17mn\nOverall bit rate : 714 Kbps\nEncoded date : UTC 2015-05-20 11:21:00\n\n\nVideo\nID : 1\nFormat : AVC\nFormat/Info : Advanced Video Codec\nFormat profile : &lt;a class=&quot;__cf_email__&quot; href=&quot;/cdn-cgi/l/email-protection&quot; data-cfemail=&quot;1850717f7058542b3629&quot;&gt;[email&amp;#160;protected]&lt;/a&gt;&lt;script data-cfhash='f9e31' type=&quot;text/javascript&quot;&gt;\n/* &lt;![CDATA[ */!function(){try{var t=&quot;currentScript&quot;in document?document.currentScript:function(){for(var t=document.getElementsByTagName(&quot;script&quot;),e=t.length;e--;)if(t[e].getAttribute(&quot;data-cfhash&quot;))return t[e]}();if(t&amp;&amp;t.previousSibling){var e,r,n,i,c=t.previousSibling,a=c.getAttribute(&quot;data-cfemail&quot;);if(a){for(e=&quot;&quot;,r=parseInt(a.substr(0,2),16),n=2;a.length-n;n+=2)i=parseInt(a.substr(n,2),16)^r,e+=String.fromCharCode(i);e=document.createTextNode(e),c.parentNode.replaceChild(e,c)}t.parentNode.removeChild(t);}}catch(u){}}()/* ]]&gt; */&lt;/script&gt;\nFormat settings, CABAC : Yes\nFormat settings, ReFrames : 3 frames\nCodec ID : V_MPEG4/ISO/AVC\nDuration : 2h 17mn\nBit rate : 632 Kbps\nWidth : 640 pixels\nHeight : 272 pixels\nDisplay aspect ratio : 2.35:1\nFrame rate mode : Constant\nFrame rate : 25.000 fps\nColor space : YUV\nChroma subsampling : 4:2:0\nBit depth : 8 bits\nScan type : Progressive\nBits/(Pixel*Frame) : 0.145\nStream size : 609 MiB (87%)\n\nAudio\nID : 2\nFormat : MPEG Audio\nFormat version : Version 1\nFormat profile : Layer 3\nMode : Joint stereo\nMode extension : MS Stereo\nCodec ID : A_MPEG/L3\nCodec ID/Hint : MP3\nDuration : 2h 17mn\nBit rate mode : Constant\nBit rate : 80.0 Kbps\nChannel(s) : 2 channels\nSampling rate : 32.0 KHz\nCompression mode : Lossy\nStream size : 78.7 MiB (11%)\n\n[/quote]\n\n[img]http://i.imgur.com/nzFpcWu.png[/img]\n[img]http://i.imgur.com/kM3NR23.png[/img]\n[img]http://i.imgur.com/3G8mAKm.png[/img]\n[img]http://i.imgur.com/H1tTiVH.png[/img]\n[img]http://i.imgur.com/EpkcJHG.png[/img]\n[img]http://i.imgur.com/RbKB8cC.png[/img]\n\n\n[b][color=Green]Sample Link :[/color][/b]\n\n[code]\n[/code]\n\n\n[/center]","torrent":{"xt":"urn:btih:42c05365fefe688f0c80a7c05ab6eb6a3f94405a","amp;dn":"Ala+Ela+%282014%29+Telugu+Movie+1CD+HDRip+x264+MP3+RDLinks+Exclusive","amp;tr":["udp%3A%2F%2Ftracker.openbittorrent.com%3A80","udp%3A%2F%2Fopen.demonii.com%3A1337","udp%3A%2F%2Ftracker.coppersurfer.tk%3A6969","udp%3A%2F%2Fexodus.desync.com%3A6969"],"infoHash":"42c05365fefe688f0c80a7c05ab6eb6a3f94405a","infoHashBuffer":{"type":"Buffer","data":[66,192,83,101,254,254,104,143,12,128,167,192,90,182,235,106,63,148,64,90]},"announce":[],"urlList":[]}}